# xmcd CD database file
# Copyright (C) 1993-1998 Ti Kan
#
# Track frame offsets:
#  150
#  16743
#  36090
#  53482
#  71792
#  91575
#  109762
#  131987
#  152964
#  170029
#  190599
#  207122
#
# Disc length: 2967 seconds
#
# Revision: 1
# Processed by: cddbd v1.4b41PL1 Copyright (c) Steve Scherf et al.
# Submitted via: CDWizzard Release:4.35
#
DISCID=9b0b950c
DTITLE=Cajsa Lisa - Cajsa Lisa
DYEAR=1900
DGENRE=
TTITLE0=Forst daa
TTITLE1=Ingenting
TTITLE2=Han aer min
TTITLE3=Starkare aen forut
TTITLE4=Se igenom mig
TTITLE5=Jag vill
TTITLE6=Igen
TTITLE7=Se mig
TTITLE8=Stanna kvar
TTITLE9=Maaste va en drom
TTITLE10=Lika barn
TTITLE11=Du gor mig hel
EXTD=
EXTT0=
EXTT1=
EXTT2=
EXTT3=
EXTT4=
EXTT5=
EXTT6=
EXTT7=
EXTT8=
EXTT9=
EXTT10=
EXTT11=
PLAYORDER=
